<svg width="539" height="162" viewBox="0 0 539 162" fill="none" xmlns="http://www.w3.org/2000/svg">
<path d="M106.16 58.8892V0.707336H131.273C135.592 0.707336 139.37 1.49332 142.609 3.06529C145.847 4.63726 148.366 6.90052 150.166 9.85507C151.965 12.8096 152.864 16.3513 152.864 20.4801C152.864 24.6467 151.936 28.16 150.08 31.0198C148.243 33.8797 145.658 36.0388 142.325 37.4971C139.01 38.9554 135.137 39.6846 130.705 39.6846H115.705V27.4119H127.523C129.38 27.4119 130.961 27.1846 132.268 26.7301C133.594 26.2566 134.607 25.5085 135.308 24.4857C136.027 23.463 136.387 22.1278 136.387 20.4801C136.387 18.8134 136.027 17.4592 135.308 16.4176C134.607 15.357 133.594 14.5804 132.268 14.088C130.961 13.5767 129.38 13.321 127.523 13.321H121.955V58.8892H106.16ZM140.251 32.1846L154.796 58.8892H137.637L123.433 32.1846H140.251Z" fill="#EDF738"/>
<path d="M161.197 58.8892V0.707336H203.129V13.4346H176.993V23.4346H200.97V36.1619H176.993V46.1619H203.016V58.8892H161.197Z" fill="#EDF738"/>
<path d="M228.472 0.707336L240.404 41.7301H240.858L252.79 0.707336H270.631L251.427 58.8892H229.836L210.631 0.707336H228.472Z" fill="#EDF738"/>
<path d="M277.835 58.8892V0.707336H319.767V13.4346H293.63V23.4346H317.608V36.1619H293.63V46.1619H319.653V58.8892H277.835Z" fill="#EDF738"/>
<path d="M344.314 58.8892H327.269L346.473 0.707336H368.064L387.269 58.8892H370.223L357.496 16.7301H357.041L344.314 58.8892ZM341.132 35.9346H373.178V47.7528H341.132V35.9346Z" fill="#EDF738"/>
<path d="M394.472 58.8892V0.707336H410.268V46.1619H433.791V58.8892H394.472Z" fill="#EDF738"/>
<path d="M0.700195 109.435V96.7073H51.2684V109.435H33.7684V154.889H18.2002V109.435H0.700195Z" fill="#EDF738"/>
<path d="M58.813 154.889V96.7073H74.6084V119.435H95.5175V96.7073H111.313V154.889H95.5175V132.162H74.6084V154.889H58.813Z" fill="#EDF738"/>
<path d="M120.413 154.889V96.7073H162.345V109.435H136.208V119.435H160.186V132.162H136.208V142.162H162.231V154.889H120.413Z" fill="#EDF738"/>
<path d="M189.316 154.889V96.7073H214.543C218.975 96.7073 222.697 97.3039 225.708 98.4971C228.738 99.6903 231.021 101.376 232.555 103.554C234.108 105.732 234.884 108.298 234.884 111.253C234.884 113.393 234.411 115.344 233.464 117.105C232.536 118.866 231.229 120.344 229.543 121.537C227.858 122.711 225.888 123.526 223.634 123.98V124.548C226.134 124.643 228.407 125.277 230.452 126.452C232.498 127.607 234.127 129.207 235.339 131.253C236.551 133.279 237.157 135.666 237.157 138.412C237.157 141.594 236.324 144.425 234.657 146.906C233.009 149.387 230.661 151.338 227.612 152.758C224.562 154.179 220.926 154.889 216.702 154.889H189.316ZM205.112 142.276H212.498C215.149 142.276 217.138 141.783 218.464 140.798C219.79 139.794 220.452 138.317 220.452 136.366C220.452 135.003 220.14 133.847 219.515 132.901C218.89 131.954 218 131.234 216.845 130.741C215.708 130.249 214.335 130.003 212.725 130.003H205.112V142.276ZM205.112 120.23H211.589C212.971 120.23 214.193 120.012 215.254 119.577C216.314 119.141 217.138 118.516 217.725 117.702C218.331 116.868 218.634 115.855 218.634 114.662C218.634 112.863 217.99 111.49 216.702 110.543C215.415 109.577 213.786 109.094 211.816 109.094H205.112V120.23Z" fill="#EDF738"/>
<path d="M244.354 154.889V96.7073H286.285V109.435H260.149V119.435H284.126V132.162H260.149V142.162H286.172V154.889H244.354Z" fill="#EDF738"/>
<path d="M299.81 161.48V90.1164H325.947V101.48H315.037V150.116H325.947V161.48H299.81Z" fill="#EDF738"/>
<path d="M347.667 154.889H330.622L349.826 96.7073H371.417L390.622 154.889H373.576L360.849 112.73H360.395L347.667 154.889ZM344.485 131.935H376.531V143.753H344.485V131.935Z" fill="#EDF738"/>
<path d="M421.462 90.1164V161.48H395.325V150.116H406.235V101.48H395.325V90.1164H421.462Z" fill="#EDF738"/>
<path d="M466.023 114.889C465.872 112.995 465.162 111.518 463.893 110.457C462.643 109.397 460.739 108.866 458.183 108.866C456.554 108.866 455.219 109.065 454.177 109.463C453.154 109.842 452.397 110.363 451.904 111.026C451.412 111.688 451.156 112.446 451.137 113.298C451.099 113.999 451.222 114.633 451.506 115.202C451.809 115.751 452.283 116.253 452.927 116.707C453.571 117.143 454.395 117.541 455.398 117.901C456.402 118.26 457.595 118.582 458.978 118.866L463.751 119.889C466.97 120.571 469.726 121.471 472.018 122.588C474.309 123.705 476.184 125.022 477.643 126.537C479.101 128.033 480.171 129.719 480.853 131.594C481.554 133.469 481.914 135.514 481.933 137.73C481.914 141.556 480.957 144.794 479.063 147.446C477.169 150.097 474.461 152.115 470.938 153.497C467.434 154.88 463.22 155.571 458.296 155.571C453.239 155.571 448.827 154.823 445.058 153.327C441.308 151.83 438.391 149.529 436.308 146.423C434.243 143.298 433.202 139.302 433.183 134.435H448.183C448.277 136.215 448.722 137.711 449.518 138.923C450.313 140.135 451.431 141.054 452.87 141.679C454.328 142.304 456.061 142.616 458.069 142.616C459.755 142.616 461.166 142.408 462.302 141.991C463.438 141.575 464.3 140.997 464.887 140.258C465.474 139.52 465.777 138.677 465.796 137.73C465.777 136.84 465.484 136.063 464.916 135.401C464.366 134.719 463.457 134.113 462.188 133.582C460.919 133.033 459.205 132.522 457.046 132.048L451.251 130.798C446.099 129.681 442.037 127.815 439.063 125.202C436.109 122.569 434.641 118.98 434.66 114.435C434.641 110.741 435.626 107.512 437.614 104.747C439.622 101.963 442.397 99.7945 445.938 98.2414C449.499 96.6884 453.58 95.9119 458.183 95.9119C462.88 95.9119 466.942 96.6979 470.37 98.2698C473.798 99.8418 476.44 102.058 478.296 104.918C480.171 107.758 481.118 111.082 481.137 114.889H466.023Z" fill="#EDF738"/>
<path d="M487.95 109.435V96.7073H538.518V109.435H521.018V154.889H505.45V109.435H487.95Z" fill="#EDF738"/>
</svg>
